<svg width="21" height="22" viewBox="0 0 21 22" fill="none" xmlns="http://www.w3.org/2000/svg">
<path d="M6.25049 17.2109C6.64831 17.2109 7.02984 17.3795 7.31115 17.6796C7.59245 17.9796 7.75049 18.3866 7.75049 18.8109C7.75049 19.2352 7.59245 19.6422 7.31115 19.9422C7.02984 20.2423 6.64831 20.4109 6.25049 20.4109C5.85266 20.4109 5.47113 20.2423 5.18983 19.9422C4.90852 19.6422 4.75049 19.2352 4.75049 18.8109C4.75049 18.3866 4.90852 17.9796 5.18983 17.6796C5.47113 17.3795 5.85266 17.2109 6.25049 17.2109ZM15.2505 17.2109C15.6483 17.2109 16.0298 17.3795 16.3111 17.6796C16.5925 17.9796 16.7505 18.3866 16.7505 18.8109C16.7505 19.2352 16.5925 19.6422 16.3111 19.9422C16.0298 20.2423 15.6483 20.4109 15.2505 20.4109C14.8527 20.4109 14.4711 20.2423 14.1898 19.9422C13.9085 19.6422 13.7505 19.2352 13.7505 18.8109C13.7505 18.3866 13.9085 17.9796 14.1898 17.6796C14.4711 17.3795 14.8527 17.2109 15.2505 17.2109Z" stroke="white" stroke-width="1.5"/>
<path d="M0.99951 0.456232C0.811737 0.385792 0.605421 0.397801 0.425948 0.489616C0.246476 0.581431 0.108549 0.745532 0.0425103 0.945818C-0.0235287 1.1461 -0.0122702 1.36617 0.073809 1.5576C0.159888 1.74903 0.313737 1.89615 0.50151 1.96659L0.99951 0.456232ZM19.4085 8.55308L20.1425 8.71414L20.1435 8.70987L19.4085 8.55308ZM19.4845 5.15584L18.8905 5.64222L19.4855 5.15477L19.4845 5.15584ZM4.45851 8.42188V5.51849H2.95851V8.42188H4.45851ZM1.26051 0.554362L0.99951 0.456232L0.50151 1.96659L0.76251 2.06365L1.26051 0.554362ZM9.68851 15.3444H14.9905V13.7444H9.68851V15.3444ZM4.45851 5.51849C4.45851 4.76438 4.45951 4.13506 4.40851 3.62415C4.35351 3.09403 4.23851 2.61084 3.95651 2.17138L2.71751 3.07376C2.80751 3.21456 2.87751 3.40868 2.91651 3.79587C2.95751 4.2012 2.95851 4.72918 2.95851 5.51849H4.45851ZM0.76251 2.06365C1.43051 2.31431 1.86951 2.48071 2.19251 2.65137C2.49551 2.80923 2.62951 2.93723 2.71751 3.07483L3.95651 2.17138C3.67251 1.72766 3.29351 1.44394 2.85251 1.21248C2.43251 0.99275 1.89451 0.792223 1.26051 0.554362L0.76251 2.06365ZM2.95851 8.42188C2.95851 9.97171 2.97251 11.0885 3.10851 11.9418C3.25551 12.8527 3.54851 13.5055 4.09351 14.1199L5.18251 13.0191C4.86251 12.6586 4.68951 12.3066 4.58751 11.6719C4.47751 10.9786 4.45851 10.0101 4.45851 8.42188H2.95851ZM9.68851 13.7444C8.27151 13.7444 7.28851 13.7423 6.54751 13.6303C5.83251 13.5225 5.45551 13.3263 5.18251 13.0191L4.09351 14.1199C4.68751 14.7886 5.44051 15.0798 6.33651 15.2142C7.20651 15.3465 8.31751 15.3444 9.68851 15.3444V13.7444ZM3.70851 5.3393H15.8385V3.73934H3.70951L3.70851 5.3393ZM18.6735 8.39095L18.1735 10.9775L19.6435 11.2997L20.1425 8.71414L18.6735 8.39095ZM15.8405 5.3393C16.6965 5.3393 17.4505 5.34036 18.0455 5.41076C18.3405 5.44703 18.5625 5.49609 18.7175 5.55369C18.8785 5.61449 18.9045 5.66036 18.8915 5.64222L20.0805 4.66732C19.8455 4.34093 19.5155 4.1564 19.2145 4.0444C18.889 3.93026 18.5526 3.85513 18.2115 3.82041C17.5165 3.73828 16.6685 3.73934 15.8405 3.73934V5.3393ZM20.1435 8.70987C20.3135 7.80536 20.4575 7.04592 20.4925 6.43793C20.5295 5.81289 20.4625 5.19637 20.0805 4.66732L18.8915 5.64222C18.9535 5.72862 19.0215 5.88328 18.9955 6.3398C18.9685 6.81339 18.8515 7.44591 18.6735 8.39628L20.1435 8.70987ZM14.9905 15.3444C15.7525 15.3444 16.3925 15.3454 16.9085 15.2782C17.4435 15.2089 17.9325 15.0553 18.3585 14.6852L17.4105 13.4447C17.2855 13.5535 17.1085 13.6409 16.7255 13.69C16.3225 13.7433 15.7905 13.7444 14.9905 13.7444V15.3444ZM18.1755 10.9775C18.0135 11.8127 17.9055 12.3674 17.7755 12.778C17.6525 13.1684 17.5355 13.3359 17.4105 13.4447L18.3585 14.6852C18.7855 14.314 19.0245 13.8351 19.1965 13.2889C19.3625 12.7642 19.4905 12.0964 19.6445 11.3007L18.1755 10.9775Z" fill="white"/>
<path d="M11.7505 11.8779V9.7446M11.7505 9.7446V7.61133M11.7505 9.7446H13.7505M11.7505 9.7446H9.75049" stroke="white" stroke-width="1.5" stroke-linecap="round"/>
</svg>
