<svg width="25" height="20" viewBox="0 0 25 20" fill="none" xmlns="http://www.w3.org/2000/svg">
<path d="M14.4347 0.288721C14.2203 0.102273 13.9306 -0.00157598 13.6292 1.80837e-05C13.3278 0.00161214 13.0395 0.108519 12.8276 0.297221C12.6158 0.485922 12.4978 0.740961 12.4996 1.00623C12.5014 1.2715 12.6229 1.52527 12.8373 1.71172L21.2175 9.00072L1.13614 9.00072C0.83482 9.00072 0.545837 9.10608 0.332769 9.29361C0.119701 9.48115 0 9.7355 0 10.0007C0 10.2659 0.119701 10.5203 0.332769 10.7078C0.545837 10.8954 0.83482 11.0007 1.13614 11.0007L21.2152 11.0007L12.8373 18.2867C12.6285 18.4741 12.5118 18.7262 12.5124 18.9886C12.5129 19.251 12.6306 19.5027 12.84 19.6895C13.0495 19.8762 13.334 19.983 13.6321 19.9868C13.9302 19.9905 14.2181 19.891 14.4336 19.7097L24.5782 10.8887C24.7118 10.7725 24.8179 10.634 24.8903 10.4814C24.9627 10.3288 25 10.1651 25 9.99972C25 9.83435 24.9627 9.67062 24.8903 9.51802C24.8179 9.36541 24.7118 9.22698 24.5782 9.11072L14.4336 0.288721H14.4347Z" fill="black"/>
</svg>
