<svg width="20" height="22" viewBox="0 0 20 22" fill="none" xmlns="http://www.w3.org/2000/svg">
<path d="M6.00179 21.247C5.45162 21.247 4.98048 21.0461 4.58837 20.6444C4.19625 20.2428 4.00052 19.7605 4.00119 19.1976C4.00119 18.634 4.19725 18.1514 4.58937 17.7497C4.98148 17.348 5.45229 17.1475 6.00179 17.1482C6.55195 17.1482 7.02309 17.349 7.41521 17.7507C7.80732 18.1524 8.00305 18.6347 8.00238 19.1976C8.00238 19.7612 7.80632 20.2438 7.41421 20.6455C7.02209 21.0471 6.55128 21.2476 6.00179 21.247ZM16.0048 21.247C15.4546 21.247 14.9835 21.0461 14.5913 20.6444C14.1992 20.2428 14.0035 19.7605 14.0042 19.1976C14.0042 18.634 14.2002 18.1514 14.5923 17.7497C14.9845 17.348 15.4553 17.1475 16.0048 17.1482C16.5549 17.1482 17.0261 17.349 17.4182 17.7507C17.8103 18.1524 18.006 18.6347 18.0054 19.1976C18.0054 19.7612 17.8093 20.2438 17.4172 20.6455C17.0251 21.0471 16.5543 21.2476 16.0048 21.247ZM5.15153 4.85184L7.55225 9.97531H14.5543L17.3052 4.85184H5.15153ZM6.00179 16.1235C5.25156 16.1235 4.68473 15.786 4.30128 15.1111C3.91783 14.4362 3.90116 13.766 4.25127 13.1006L5.60167 10.5901L2.0006 2.80245H0.97529C0.691873 2.80245 0.45847 2.70407 0.275082 2.50733C0.0916939 2.31059 0 2.0674 0 1.77775C0 1.48742 0.0960286 1.24388 0.288086 1.04714C0.480143 0.850401 0.717547 0.752372 1.0003 0.753055H2.62578C2.80917 0.753055 2.98422 0.80429 3.15094 0.90676C3.31765 1.00923 3.44269 1.15439 3.52605 1.34226L4.20125 2.80245H18.9556C19.4058 2.80245 19.7142 2.97323 19.8809 3.31479C20.0476 3.65636 20.0393 4.015 19.8559 4.39072L16.3049 10.9488C16.1215 11.2903 15.8797 11.5551 15.5796 11.7429C15.2795 11.9308 14.9378 12.0247 14.5543 12.0247H7.10211L6.00179 14.0741H17.0301C17.3135 14.0741 17.5469 14.1725 17.7303 14.3692C17.9137 14.5659 18.0054 14.8091 18.0054 15.0988C18.0054 15.3891 17.9093 15.6327 17.7173 15.8294C17.5252 16.0261 17.2878 16.1242 17.0051 16.1235H6.00179Z" fill="black"/>
</svg>
