<svg width="15" height="15" viewBox="0 0 15 15" fill="none" xmlns="http://www.w3.org/2000/svg">
<path d="M10.999 9.67361H10.304L10.0576 9.4362C10.6075 8.7978 11.0093 8.04582 11.2344 7.23408C11.4595 6.42235 11.5023 5.57091 11.3597 4.74072C10.9462 2.29625 8.90505 0.344195 6.44155 0.0452311C5.57547 -0.0642724 4.6958 0.0256856 3.86986 0.308221C3.04392 0.590757 2.29359 1.05838 1.6763 1.67531C1.059 2.29224 0.591104 3.04213 0.308402 3.86759C0.0257007 4.69305 -0.0643101 5.5722 0.0452577 6.43777C0.344397 8.89983 2.2976 10.9398 4.7435 11.3531C5.57418 11.4956 6.42611 11.4528 7.23833 11.2278C8.05054 11.0029 8.80296 10.6012 9.44174 10.0517L9.67929 10.2979V10.9926L13.4185 14.7296C13.7793 15.0901 14.3687 15.0901 14.7295 14.7296C15.0902 14.3691 15.0902 13.78 14.7295 13.4195L10.999 9.67361ZM5.7201 9.67361C3.52935 9.67361 1.76091 7.90621 1.76091 5.71674C1.76091 3.52728 3.52935 1.75987 5.7201 1.75987C7.91085 1.75987 9.67929 3.52728 9.67929 5.71674C9.67929 7.90621 7.91085 9.67361 5.7201 9.67361Z" fill="#686868"/>
</svg>
