<svg width="147" height="26" viewBox="0 0 147 26" fill="none" xmlns="http://www.w3.org/2000/svg">
<g filter="url(#filter0_i_497_6)">
<path d="M14.5455 7.54545C14.4091 6.39394 13.8561 5.5 12.8864 4.86364C11.9167 4.22727 10.7273 3.90909 9.31818 3.90909C8.28788 3.90909 7.38636 4.07576 6.61364 4.40909C5.84849 4.74242 5.25 5.20076 4.81818 5.78409C4.39394 6.36742 4.18182 7.0303 4.18182 7.77273C4.18182 8.39394 4.32955 8.92803 4.625 9.375C4.92803 9.81439 5.31439 10.1818 5.78409 10.4773C6.25379 10.7652 6.74621 11.0038 7.26136 11.1932C7.77652 11.375 8.25 11.5227 8.68182 11.6364L11.0455 12.2727C11.6515 12.4318 12.3258 12.6515 13.0682 12.9318C13.8182 13.2121 14.5341 13.5947 15.2159 14.0795C15.9053 14.5568 16.4735 15.1705 16.9205 15.9205C17.3674 16.6705 17.5909 17.5909 17.5909 18.6818C17.5909 19.9394 17.2614 21.0758 16.6023 22.0909C15.9508 23.1061 14.9962 23.9129 13.7386 24.5114C12.4886 25.1098 10.9697 25.4091 9.18182 25.4091C7.51515 25.4091 6.07197 25.1402 4.85227 24.6023C3.64015 24.0644 2.68561 23.3144 1.98864 22.3523C1.29924 21.3902 0.909091 20.2727 0.818182 19H3.72727C3.80303 19.8788 4.09848 20.6061 4.61364 21.1818C5.13636 21.75 5.79545 22.1742 6.59091 22.4545C7.39394 22.7273 8.25758 22.8636 9.18182 22.8636C10.2576 22.8636 11.2235 22.6894 12.0795 22.3409C12.9356 21.9848 13.6136 21.4924 14.1136 20.8636C14.6136 20.2273 14.8636 19.4848 14.8636 18.6364C14.8636 17.8636 14.6477 17.2348 14.2159 16.75C13.7841 16.2652 13.2159 15.8712 12.5114 15.5682C11.8068 15.2652 11.0455 15 10.2273 14.7727L7.36364 13.9545C5.54545 13.4318 4.10606 12.6856 3.04545 11.7159C1.98485 10.7462 1.45455 9.47727 1.45455 7.90909C1.45455 6.60606 1.80682 5.4697 2.51136 4.5C3.22348 3.52273 4.17803 2.76515 5.375 2.22727C6.57955 1.68182 7.92424 1.40909 9.40909 1.40909C10.9091 1.40909 12.2424 1.67803 13.4091 2.21591C14.5758 2.74621 15.5 3.47348 16.1818 4.39773C16.8712 5.32197 17.2348 6.37121 17.2727 7.54545H14.5455ZM25.8153 25L20.4972 7.54545H23.3153L27.0881 20.9091H27.2699L30.9972 7.54545H33.8608L37.5426 20.8636H37.7244L41.4972 7.54545H44.3153L38.9972 25H36.3608L32.5426 11.5909H32.2699L28.4517 25H25.8153ZM47.8608 25V7.54545H50.5426V25H47.8608ZM49.2244 4.63636C48.7017 4.63636 48.2509 4.45833 47.8722 4.10227C47.5009 3.74621 47.3153 3.31818 47.3153 2.81818C47.3153 2.31818 47.5009 1.89015 47.8722 1.53409C48.2509 1.17803 48.7017 1 49.2244 1C49.7472 1 50.1941 1.17803 50.5653 1.53409C50.9441 1.89015 51.1335 2.31818 51.1335 2.81818C51.1335 3.31818 50.9441 3.74621 50.5653 4.10227C50.1941 4.45833 49.7472 4.63636 49.2244 4.63636ZM63.2273 7.54545V9.81818H53.8182V7.54545H63.2273ZM56.6364 25V5.13636C56.6364 4.13636 56.8712 3.30303 57.3409 2.63636C57.8106 1.9697 58.4205 1.4697 59.1705 1.13636C59.9205 0.803029 60.7121 0.636362 61.5455 0.636362C62.2045 0.636362 62.7424 0.689393 63.1591 0.795454C63.5758 0.901514 63.8864 0.999999 64.0909 1.09091L63.3182 3.40909C63.1818 3.36364 62.9924 3.30682 62.75 3.23864C62.5152 3.17045 62.2045 3.13636 61.8182 3.13636C60.9318 3.13636 60.2917 3.35985 59.8977 3.80682C59.5114 4.25379 59.3182 4.90909 59.3182 5.77273V25H56.6364ZM74.5767 7.54545V9.81818H65.5312V7.54545H74.5767ZM68.1676 3.36364H70.8494V20C70.8494 20.7576 70.9593 21.3258 71.179 21.7045C71.4063 22.0758 71.6941 22.3258 72.0426 22.4545C72.3987 22.5758 72.7737 22.6364 73.1676 22.6364C73.4631 22.6364 73.7055 22.6212 73.8949 22.5909C74.0843 22.553 74.2358 22.5227 74.3494 22.5L74.8949 24.9091C74.7131 24.9773 74.4593 25.0455 74.1335 25.1136C73.8078 25.1894 73.3949 25.2273 72.8949 25.2273C72.1373 25.2273 71.3949 25.0644 70.6676 24.7386C69.9479 24.4129 69.3494 23.9167 68.8722 23.25C68.4025 22.5833 68.1676 21.7424 68.1676 20.7273V3.36364ZM79.3494 1.72727H82.7131L90.6222 21.0455H90.8949L98.804 1.72727H102.168V25H99.5312V7.31818H99.304L92.0312 25H89.4858L82.2131 7.31818H81.9858V25H79.3494V1.72727ZM112.591 25.4091C111.485 25.4091 110.481 25.2008 109.58 24.7841C108.678 24.3598 107.962 23.75 107.432 22.9545C106.902 22.1515 106.636 21.1818 106.636 20.0455C106.636 19.0455 106.833 18.2348 107.227 17.6136C107.621 16.9848 108.148 16.4924 108.807 16.1364C109.466 15.7803 110.193 15.5152 110.989 15.3409C111.792 15.1591 112.598 15.0152 113.409 14.9091C114.47 14.7727 115.33 14.6705 115.989 14.6023C116.655 14.5265 117.14 14.4015 117.443 14.2273C117.754 14.053 117.909 13.75 117.909 13.3182V13.2273C117.909 12.1061 117.602 11.2348 116.989 10.6136C116.383 9.99242 115.462 9.68182 114.227 9.68182C112.947 9.68182 111.943 9.96212 111.216 10.5227C110.489 11.0833 109.977 11.6818 109.682 12.3182L107.136 11.4091C107.591 10.3485 108.197 9.52273 108.955 8.93182C109.72 8.33333 110.553 7.91667 111.455 7.68182C112.364 7.43939 113.258 7.31818 114.136 7.31818C114.697 7.31818 115.341 7.38636 116.068 7.52273C116.803 7.65151 117.511 7.92045 118.193 8.32954C118.883 8.73864 119.455 9.35606 119.909 10.1818C120.364 11.0076 120.591 12.1136 120.591 13.5V25H117.909V22.6364H117.773C117.591 23.0152 117.288 23.4205 116.864 23.8523C116.439 24.2841 115.875 24.6515 115.17 24.9545C114.466 25.2576 113.606 25.4091 112.591 25.4091ZM113 23C114.061 23 114.955 22.7917 115.682 22.375C116.417 21.9583 116.97 21.4205 117.341 20.7614C117.72 20.1023 117.909 19.4091 117.909 18.6818V16.2273C117.795 16.3636 117.545 16.4886 117.159 16.6023C116.78 16.7083 116.341 16.803 115.841 16.8864C115.348 16.9621 114.867 17.0303 114.398 17.0909C113.936 17.1439 113.561 17.1894 113.273 17.2273C112.576 17.3182 111.924 17.4659 111.318 17.6705C110.72 17.8674 110.235 18.1667 109.864 18.5682C109.5 18.9621 109.318 19.5 109.318 20.1818C109.318 21.1136 109.663 21.8182 110.352 22.2955C111.049 22.7652 111.932 23 113 23ZM125.486 25V7.54545H128.077V10.1818H128.259C128.577 9.31818 129.152 8.61742 129.986 8.07954C130.819 7.54167 131.759 7.27273 132.804 7.27273C133.001 7.27273 133.247 7.27651 133.543 7.28409C133.838 7.29167 134.062 7.30303 134.213 7.31818V10.0455C134.122 10.0227 133.914 9.98864 133.588 9.94318C133.27 9.89015 132.933 9.86364 132.577 9.86364C131.728 9.86364 130.971 10.0417 130.304 10.3977C129.645 10.7462 129.122 11.2311 128.736 11.8523C128.357 12.4659 128.168 13.1667 128.168 13.9545V25H125.486ZM146.077 7.54545V9.81818H137.031V7.54545H146.077ZM139.668 3.36364H142.349V20C142.349 20.7576 142.459 21.3258 142.679 21.7045C142.906 22.0758 143.194 22.3258 143.543 22.4545C143.899 22.5758 144.274 22.6364 144.668 22.6364C144.963 22.6364 145.205 22.6212 145.395 22.5909C145.584 22.553 145.736 22.5227 145.849 22.5L146.395 24.9091C146.213 24.9773 145.959 25.0455 145.634 25.1136C145.308 25.1894 144.895 25.2273 144.395 25.2273C143.637 25.2273 142.895 25.0644 142.168 24.7386C141.448 24.4129 140.849 23.9167 140.372 23.25C139.902 22.5833 139.668 21.7424 139.668 20.7273V3.36364Z" fill="#0C8DE8"/>
</g>
<defs>
<filter id="filter0_i_497_6" x="0.818176" y="0.636475" width="145.577" height="28.7727" filterUnits="userSpaceOnUse" color-interpolation-filters="sRGB">
<feFlood flood-opacity="0" result="BackgroundImageFix"/>
<feBlend mode="normal" in="SourceGraphic" in2="BackgroundImageFix" result="shape"/>
<feColorMatrix in="SourceAlpha" type="matrix" values="0 0 0 0 0 0 0 0 0 0 0 0 0 0 0 0 0 0 127 0" result="hardAlpha"/>
<feOffset dy="4"/>
<feGaussianBlur stdDeviation="2"/>
<feComposite in2="hardAlpha" operator="arithmetic" k2="-1" k3="1"/>
<feColorMatrix type="matrix" values="0 0 0 0 0 0 0 0 0 0 0 0 0 0 0 0 0 0 0.25 0"/>
<feBlend mode="normal" in2="shape" result="effect1_innerShadow_497_6"/>
</filter>
</defs>
</svg>
